# xmcd
#
# Track frame offsets:
#	150
#	60372
#	136677
#	241862
#	313510
#
# Disc length: 4610 seconds
#
# Revision: 1
# Processed by: cddbd v1.5.2PL0 Copyright (c) Steve Scherf et al.
# Submitted via: audiograbber 1.83.01
#
DISCID=33120005
DTITLE=Kempowski, Walter - Schöne Aussicht - CD 5
DYEAR=1900
DGENRE=
TTITLE0=Kapitel 5, Abschnitt 2
TTITLE1=Kapitel 5, Abschnitt 3
TTITLE2=Kapitel 5, Abschnitt 4
TTITLE3=Kapitel 5, Abschnitt 5
TTITLE4=Kapitel 5, Abschnitt 6
EXTD=
EXTT0=
EXTT1=
EXTT2=
EXTT3=
EXTT4=
PLAYORDER=
